name C:\Users\u0101727\Documents\MyRepositories\upper-imu-dc\Results\main_tracking\Case_43\FLX01_orientations_groundFrame.mot
datacolumns 13
datarows 18
range 0.51000000 0.68000000
endheader 
time	radius_imu_[0][0]	radius_imu_[0][1]	radius_imu_[0][2]	radius_imu_[1][0]	radius_imu_[1][1]	radius_imu_[1][2]	radius_imu_[2][0]	radius_imu_[2][1]	radius_imu_[2][2]	radius_imu_x	radius_imu_y	radius_imu_z	
          0.51000000	          0.68918792	         -0.01357275	          0.72445552	         -0.12903390	          0.98154434	          0.14114167	         -0.71300089	         -0.19075245	          0.67471715	         -0.20621286	          0.81024418	          0.01969129	
          0.52000000	          0.68730613	         -0.01835087	          0.72613603	         -0.12879832	          0.98076047	          0.14669659	         -0.71485752	         -0.19435057	          0.67171912	         -0.21501391	          0.81268524	          0.02669336	
          0.53000000	          0.68541838	         -0.02320135	          0.72777973	         -0.12851136	          0.97994806	          0.15227157	         -0.71671924	         -0.19789770	          0.66869277	         -0.22389739	          0.81507893	          0.03383699	
          0.54000000	          0.68352507	         -0.02812608	          0.72938495	         -0.12817567	          0.97910537	          0.15787230	         -0.71858505	         -0.20139908	          0.66563799	         -0.23287158	          0.81742246	          0.04112537	
          0.55000000	          0.68162804	         -0.03312768	          0.73094854	         -0.12779512	          0.97822996	          0.16350704	         -0.72045237	         -0.20486264	          0.66255542	         -0.24194808	          0.81971086	          0.04856261	
          0.56000000	          0.67972807	         -0.03821071	          0.73246822	         -0.12737411	          0.97731865	          0.16918659	         -0.72231959	         -0.20829836	          0.65944386	         -0.25114272	          0.82194038	          0.05615560	
          0.57000000	          0.67782555	         -0.04338136	          0.73394181	         -0.12691742	          0.97636754	          0.17492398	         -0.72418540	         -0.21171794	          0.65630101	         -0.26047489	          0.82410740	          0.06391361	
          0.58000000	          0.67592121	         -0.04864727	          0.73536655	         -0.12643000	          0.97537203	          0.18073423	         -0.72604819	         -0.21513450	          0.65312416	         -0.26996702	          0.82620742	          0.07184793	
          0.59000000	          0.67401648	         -0.05401743	          0.73673869	         -0.12591671	          0.97432679	          0.18663410	         -0.72790574	         -0.21856217	          0.64991062	         -0.27964395	          0.82823445	          0.07997167	
          0.60000000	          0.67211406	         -0.05950193	          0.73805299	         -0.12538196	          0.97322584	          0.19264172	         -0.72975479	         -0.22201574	          0.64665830	         -0.28953222	          0.83018023	          0.08829932	
          0.61000000	          0.67021836	         -0.06511180	          0.73930224	         -0.12482951	          0.97206254	          0.19877631	         -0.73159070	         -0.22551027	          0.64336628	         -0.29965921	          0.83203356	          0.09684621	
          0.62000000	          0.66833582	         -0.07085867	          0.74047706	         -0.12426221	          0.97082965	          0.20505779	         -0.73340721	         -0.22906079	          0.64003517	         -0.31005232	          0.83377991	          0.10562796	
          0.63000000	          0.66647490	         -0.07675464	          0.74156586	         -0.12368185	          0.96951938	          0.21150645	         -0.73519657	         -0.23268198	          0.63666718	         -0.32073815	          0.83540140	          0.11465995	
          0.64000000	          0.66464562	         -0.08281206	          0.74255529	         -0.12308906	          0.96812340	          0.21814254	         -0.73694998	         -0.23638792	          0.63326572	         -0.33174196	          0.83687742	          0.12395700	
          0.65000000	          0.66285865	         -0.08904354	          0.74343101	         -0.12248328	          0.96663291	          0.22498593	         -0.73865842	         -0.24019174	          0.62983464	         -0.34308729	          0.83818584	          0.13353324	
          0.66000000	          0.66112418	         -0.09546197	          0.74417863	         -0.12186275	          0.96503866	          0.23205572	         -0.74031364	         -0.24410531	          0.62637713	         -0.35479576	          0.83930436	          0.14340227	
          0.67000000	          0.65945099	         -0.10208048	          0.74478451	         -0.12122456	          0.96333104	          0.23936984	         -0.74190902	         -0.24813886	          0.62289495	         -0.36688691	          0.84021186	          0.15357723	
          0.68000000	          0.65784569	         -0.10891233	          0.74523630	         -0.12056465	          0.96150012	          0.24694470	         -0.74344012	         -0.25230066	          0.61938774	         -0.37937796	          0.84088915	          0.16407084	
